<?xml version="1.0" standalone="no"?>
<!DOCTYPE svg PUBLIC "-//W3C//DTD SVG 20010904//EN"
 "http://www.w3.org/TR/2001/REC-SVG-20010904/DTD/svg10.dtd">
<svg version="1.0" xmlns="http://www.w3.org/2000/svg"
 width="512.000000pt" height="512.000000pt" viewBox="0 0 512.000000 512.000000"
 preserveAspectRatio="xMidYMid meet">
<metadata>
Created by potrace 1.11, written by Peter Selinger 2001-2013
</metadata>
<g transform="translate(0.000000,512.000000) scale(0.100000,-0.100000)"
fill="#000000" stroke="none">
<path d="M1615 5078 c-295 -33 -575 -185 -763 -415 -35 -42 -142 -214 -142
-227 0 -2 -8 -21 -17 -42 -9 -22 -17 -41 -18 -44 -1 -3 -9 -30 -18 -59 -128
-414 -10 -868 305 -1167 130 -123 317 -229 455 -258 104 -22 122 -25 203 -36
130 -18 129 -18 139 -58 5 -20 12 -75 16 -122 3 -47 8 -98 10 -115 2 -16 7
-66 10 -110 4 -44 8 -91 10 -105 2 -14 6 -54 9 -90 6 -64 16 -181 21 -230 1
-14 5 -59 9 -100 4 -41 9 -93 11 -115 2 -22 7 -71 10 -110 3 -38 8 -97 12
-130 8 -81 10 -106 18 -204 4 -46 8 -91 10 -100 1 -9 6 -54 9 -101 4 -47 9
-98 11 -115 2 -16 7 -61 10 -100 9 -113 18 -208 29 -330 6 -61 12 -122 21
-217 2 -29 7 -79 10 -112 9 -101 53 -169 135 -212 33 -17 83 -18 855 -18 922
-1 878 -4 949 74 39 43 51 81 61 185 7 72 9 94 20 225 3 41 8 89 10 105 2 17
7 62 10 100 9 113 15 178 20 210 2 17 7 69 10 118 3 48 8 97 10 110 3 12 7 58
11 102 3 44 8 96 9 115 2 19 7 69 10 110 4 41 9 89 11 105 2 17 6 64 9 105 3
41 7 89 10 105 2 17 7 66 10 110 3 44 8 91 10 105 3 14 7 59 10 100 3 41 7 95
10 120 2 25 7 79 11 120 3 41 8 89 10 105 1 17 6 68 9 115 4 47 9 94 11 105 2
11 6 54 9 95 3 41 7 91 10 110 3 19 7 67 10 105 3 39 8 86 10 105 3 19 7 67
10 105 3 39 8 86 10 105 2 19 6 73 10 120 4 47 8 96 10 110 2 14 7 59 10 100
3 41 8 95 10 120 7 83 -38 163 -109 196 -35 17 -70 19 -320 19 -243 1 -281 3
-284 16 -3 14 23 138 30 144 7 6 202 121 585 344 144 84 268 162 275 174 8 12
15 38 17 58 2 29 -4 44 -30 74 -31 35 -36 37 -80 33 -37 -4 -80 -24 -196 -93
-81 -48 -161 -96 -178 -105 -16 -9 -88 -51 -160 -92 -398 -230 -397 -230 -433
-301 -19 -39 -24 -58 -38 -142 -7 -44 -22 -70 -52 -87 -22 -13 -64 -16 -226
-16 -180 1 -200 2 -217 19 -11 11 -19 29 -20 42 0 12 -2 31 -4 42 -2 11 -6 36
-8 55 -6 40 -30 131 -46 173 -6 15 -9 27 -6 27 8 0 -91 186 -129 244 -53 79
-183 215 -265 276 -76 57 -237 140 -331 170 -138 44 -333 64 -475 48z m350
-236 c231 -64 417 -197 545 -391 57 -86 103 -191 131 -298 23 -91 24 -123 5
-149 -14 -18 -31 -19 -423 -20 -389 -2 -411 -3 -449 -22 -83 -42 -109 -100
-100 -222 3 -47 8 -96 10 -110 2 -14 7 -63 10 -110 4 -47 9 -101 11 -120 2
-19 6 -69 10 -110 3 -41 7 -88 9 -105 9 -60 9 -132 1 -144 -5 -9 -23 -11 -59
-8 -326 34 -587 210 -740 498 -32 60 -75 183 -81 232 -3 22 -8 43 -11 48 -9
16 -6 223 5 289 40 243 191 477 396 616 94 63 243 126 335 139 25 4 47 9 50
12 12 13 278 -6 345 -25z m1360 -1086 c9 -3 10 -18 4 -58 -5 -29 -11 -71 -14
-93 -12 -83 -23 -153 -29 -180 -2 -11 -7 -47 -11 -80 -4 -32 -8 -66 -10 -75
-4 -23 -14 -90 -21 -135 -3 -22 -11 -80 -19 -130 -7 -49 -16 -108 -19 -130 -4
-22 -9 -53 -12 -68 l-6 -28 -351 2 c-194 1 -386 6 -427 10 -41 4 -105 10 -142
14 -58 6 -72 4 -107 -16 -60 -33 -74 -72 -67 -178 4 -48 8 -96 10 -107 2 -10
7 -61 10 -112 4 -51 9 -100 10 -110 2 -9 7 -61 11 -116 4 -54 8 -110 10 -125
2 -14 6 -60 10 -101 3 -41 8 -95 10 -120 3 -25 7 -74 10 -110 3 -36 7 -85 10
-110 2 -25 7 -76 10 -115 3 -38 8 -86 10 -105 2 -19 7 -71 10 -115 3 -44 8
-91 10 -105 2 -14 6 -65 10 -115 3 -49 8 -103 11 -120 2 -16 6 -62 8 -100 3
-39 7 -93 10 -120 3 -28 8 -79 11 -115 11 -128 29 -167 89 -190 18 -6 234 -10
619 -10 544 0 595 1 626 18 64 32 72 53 86 222 3 41 8 91 10 110 3 19 7 64 10
100 3 36 7 85 10 110 13 119 15 150 20 210 3 36 7 81 10 100 2 19 7 73 11 119
3 47 7 92 9 100 1 9 6 52 9 96 4 44 9 100 11 125 3 25 7 70 10 100 3 30 7 75
10 100 2 25 7 77 10 115 3 39 8 88 10 110 2 22 6 65 9 95 14 154 18 198 22
225 2 17 7 77 10 135 5 95 3 108 -15 138 -35 54 -68 62 -266 62 l-176 0 6 43
c3 23 12 83 20 132 8 50 17 108 20 130 3 22 17 114 31 205 14 91 30 194 35
230 5 36 12 77 14 93 3 15 7 41 10 58 8 46 33 77 67 85 17 3 121 6 231 6 239
-1 242 -2 233 -92 -3 -30 -8 -84 -11 -120 -3 -36 -8 -83 -10 -105 -3 -22 -7
-69 -10 -105 -3 -36 -8 -90 -11 -120 -3 -30 -8 -77 -10 -105 -2 -27 -6 -68 -9
-90 -2 -22 -7 -74 -10 -115 -3 -41 -8 -91 -10 -110 -2 -19 -7 -71 -10 -115 -4
-44 -8 -91 -10 -105 -2 -14 -7 -61 -10 -105 -4 -44 -8 -96 -10 -115 -2 -19 -6
-66 -10 -105 -3 -38 -8 -90 -10 -115 -5 -43 -8 -85 -20 -217 -15 -174 -23
-254 -30 -313 -2 -19 -7 -66 -10 -105 -3 -38 -7 -90 -9 -115 -11 -112 -18
-188 -21 -220 -4 -52 -16 -181 -20 -215 -2 -16 -7 -66 -10 -110 -3 -44 -8 -93
-10 -110 -2 -16 -7 -64 -10 -105 -3 -41 -8 -91 -10 -110 -2 -19 -6 -70 -10
-112 -8 -103 -12 -121 -30 -134 -10 -8 -234 -11 -765 -10 -645 1 -752 3 -760
16 -9 15 -17 65 -25 175 -3 39 -7 84 -9 100 -2 17 -7 70 -11 118 -3 48 -8 97
-10 108 -2 11 -7 57 -10 103 -3 45 -7 91 -9 102 -2 10 -7 60 -10 109 -4 50 -8
104 -10 120 -4 27 -9 86 -22 230 -2 28 -6 70 -9 95 -8 80 -15 163 -20 230 -3
35 -7 76 -9 90 -3 14 -7 65 -11 113 -3 48 -8 96 -10 105 -1 9 -6 58 -10 107
-3 50 -8 104 -10 120 -1 17 -6 62 -9 100 -4 39 -9 90 -11 115 -9 86 -14 146
-20 220 -3 41 -8 86 -10 100 -4 29 -16 162 -20 229 -2 25 -5 64 -8 86 -3 22
-9 76 -12 120 -3 44 -8 94 -10 110 -2 17 -7 64 -10 105 -3 41 -8 89 -10 105
-9 67 -7 136 5 149 7 9 34 16 68 18 91 5 1323 0 1337 -6z m-422 -1598 c20 -21
197 -305 197 -316 0 -6 4 -12 8 -14 4 -1 18 -18 31 -36 21 -30 22 -35 8 -50
-9 -9 -29 -25 -45 -34 -29 -17 -29 -17 -72 23 -57 53 -93 67 -165 64 -62 -2
-101 -20 -213 -97 l-44 -30 -16 23 c-9 13 -21 32 -27 41 -5 9 -29 48 -52 87
-24 38 -43 75 -43 83 0 13 249 178 269 178 5 0 11 4 13 8 5 13 111 80 126 81
7 1 19 -5 25 -11z m538 -622 c41 -65 74 -124 75 -130 1 -38 -22 -65 -106 -118
-69 -44 -90 -53 -90 -40 0 24 -51 124 -111 215 -27 44 -49 80 -47 81 2 1 21
13 43 26 51 29 92 76 106 118 l11 34 22 -34 c12 -18 56 -86 97 -152z m-405
-106 c68 -108 103 -175 104 -194 0 -20 -11 -39 -36 -62 -19 -19 -40 -34 -45
-34 -5 0 -15 -5 -22 -10 -7 -6 -66 -44 -132 -85 -122 -76 -162 -88 -196 -62
-13 10 -31 36 -96 143 -6 10 -34 55 -62 99 -60 96 -69 127 -48 159 15 22 302
207 350 225 49 19 75 -7 183 -179z"/>
<path d="M1564 4716 c-73 -18 -161 -55 -220 -93 -72 -45 -86 -61 -75 -82 19
-34 355 -361 371 -361 36 0 38 21 38 273 0 301 4 291 -114 263z"/>
<path d="M1833 4724 c-10 -4 -13 -67 -13 -263 0 -263 2 -281 39 -281 22 0 371
351 371 372 0 61 -326 202 -397 172z"/>
<path d="M1103 4406 c-68 -74 -158 -311 -136 -359 10 -22 11 -22 264 -22 140
0 260 4 267 8 6 5 12 17 12 27 0 18 -305 333 -353 365 -23 14 -25 14 -54 -19z"/>
<path d="M2155 4256 c-93 -95 -171 -179 -172 -187 -8 -41 5 -43 259 -44 259
-1 274 0 282 20 14 38 -57 237 -117 325 -34 51 -45 60 -67 59 -8 -1 -91 -79
-185 -173z"/>
<path d="M1146 3883 c-4 -4 -43 -8 -87 -8 -93 -1 -103 -8 -94 -73 17 -123 128
-342 173 -342 19 0 372 363 372 382 0 29 -33 35 -190 33 -80 -1 -150 2 -156 7
-6 4 -14 5 -18 1z"/>
<path d="M1438 3530 c-98 -98 -178 -185 -178 -192 0 -28 37 -57 136 -107 56
-28 184 -74 184 -65 0 2 11 -1 24 -6 17 -6 29 -5 42 5 17 12 18 33 19 256 1
134 -2 254 -7 267 -4 12 -15 22 -25 22 -10 0 -98 -81 -195 -180z"/>
</g>
</svg>
